<svg xmlns="http://www.w3.org/2000/svg" version="1.1" xmlns:xlink="http://www.w3.org/1999/xlink" xmlns:svgjs="http://svgjs.dev/svgjs" width="1500" height="412" viewBox="0 0 1500 412"><g transform="matrix(1,0,0,1,-0.9090909090909918,0.4170321709268876)"><svg viewBox="0 0 396 109" data-background-color="#f9f9f9" preserveAspectRatio="xMidYMid meet" height="412" width="1500" xmlns="http://www.w3.org/2000/svg" xmlns:xlink="http://www.w3.org/1999/xlink"><g id="tight-bounds" transform="matrix(1,0,0,1,0.2400000000000091,-0.1103313267743431)"><svg viewBox="0 0 395.52 109.2206626535487" height="109.2206626535487" width="395.52"><g><svg viewBox="0 0 572.532462457001 158.1016761231332" height="109.2206626535487" width="395.52"><g transform="matrix(1,0,0,1,0,21.850521085035055)"><svg viewBox="0 0 395.52 114.40063395306308" height="114.40063395306308" width="395.52"><g id="textblocktransform"><svg viewBox="0 0 395.52 114.40063395306308" height="114.40063395306308" width="395.52" id="textblock"><g><svg viewBox="0 0 395.52 114.40063395306308" height="114.40063395306308" width="395.52"><g transform="matrix(1,0,0,1,0,0)"><svg width="395.52" viewBox="4.6 -37.5 164.04 47.45" height="114.40063395306308" data-palette-color="#030303"><path d="M4.6 0L4.6-35 11.45-35 23.55-11.25 35.55-35 42.4-35 42.4 0 36.95 0 36.9-26.75 25.4-3.65 21.65-3.65 10.05-26.75 10.05 0 4.6 0ZM73.8-26.55L61.7 3.75Q60.45 6.8 58.25 8.38 56.05 9.95 53.05 9.95L53.05 9.95Q51.25 9.95 49.77 9.4 48.3 8.85 46.9 7.75L46.9 7.75 49.35 3.5Q51.15 4.8 52.8 4.8L52.8 4.8Q54.1 4.8 55.15 4.05 56.2 3.3 56.85 1.75L56.85 1.75 57.75-0.35 46.75-26.55 52.7-26.55 60.65-6.05 68.05-26.55 73.8-26.55ZM74-29.95L74-35 102.05-35 102.05-29.95 90.95-29.95 90.95 0 85.05 0 85.05-29.95 74-29.95ZM121.69-26.75L121.69-21.55Q118.84-21.7 116.77-20.58 114.69-19.45 113.57-17.45 112.44-15.45 112.44-12.85L112.44-12.85 110.84-13.05Q110.84-17.5 112.14-20.55 113.44-23.6 115.89-25.18 118.34-26.75 121.69-26.75L121.69-26.75ZM106.74 0L106.74-26.55 112.49-26.55 112.49 0 106.74 0ZM126.44 0L126.44-26.55 132.14-26.55 132.14 0 126.44 0ZM129.29-37.5L129.29-37.5Q130.74-37.5 131.69-36.55 132.64-35.6 132.64-34.15L132.64-34.15Q132.64-32.75 131.69-31.78 130.74-30.8 129.29-30.8L129.29-30.8Q127.89-30.8 126.92-31.78 125.94-32.75 125.94-34.15L125.94-34.15Q125.94-35.6 126.92-36.55 127.89-37.5 129.29-37.5ZM155.94-26.75L155.94-26.75Q159.74-26.75 162.59-25.05 165.44-23.35 167.04-20.3 168.64-17.25 168.64-13.2L168.64-13.2Q168.64-9.25 167.06-6.23 165.49-3.2 162.66-1.5 159.84 0.2 156.04 0.2L156.04 0.2Q152.39 0.2 149.81-1.4 147.24-3 145.89-6.03 144.54-9.05 144.54-13.2L144.54-13.2Q144.54-17.5 145.89-20.53 147.24-23.55 149.81-25.15 152.39-26.75 155.94-26.75ZM154.74-22.2L154.74-22.2Q152.39-22.2 150.54-21.05 148.69-19.9 147.66-17.93 146.64-15.95 146.64-13.35L146.64-13.35Q146.64-10.75 147.66-8.72 148.69-6.7 150.54-5.58 152.39-4.45 154.74-4.45L154.74-4.45Q157.14-4.45 158.96-5.6 160.79-6.75 161.81-8.75 162.84-10.75 162.84-13.35L162.84-13.35Q162.84-15.9 161.81-17.9 160.79-19.9 158.96-21.05 157.14-22.2 154.74-22.2ZM140.89 9.7L140.89-26.55 146.64-26.55 146.64 9.7 140.89 9.7Z" opacity="1" transform="matrix(1,0,0,1,0,0)" fill="#030303" class="wordmark-text-0" data-fill-palette-color="primary" id="text-0"></path></svg></g></svg></g></svg></g></svg></g><g transform="matrix(1,0,0,1,422.5272440611033,0)"><svg viewBox="0 0 150.00521839589769 158.1016761231332" height="158.1016761231332" width="150.00521839589769"><g><svg xmlns="http://www.w3.org/2000/svg" xmlns:xlink="http://www.w3.org/1999/xlink" version="1.1" x="0" y="0" viewBox="13.649258652296304 14.050716806786774 68.83831046224569 72.55382433990908" enable-background="new 0 0 96.314 100" xml:space="preserve" height="158.1016761231332" width="150.00521839589769" class="icon-icon-0" data-fill-palette-color="accent" id="icon-0"><g fill="#030303" data-fill-palette-color="accent"><path fill="#030303" d="M31.844 31.498C32.357 31.106 32.816 30.655 33.272 30.2 33.423 30.05 32.8 29.766 32.66 29.906 32.204 30.361 31.745 30.812 31.232 31.203 31.078 31.321 31.68 31.624 31.844 31.498" data-fill-palette-color="accent"></path><path fill="#030303" d="M28.294 33.371C27.534 33.878 26.773 34.383 25.958 34.798 25.833 34.862 25.867 34.967 25.991 34.993A0.75 0.75 0 0 0 26.479 34.911C27.293 34.495 28.055 33.99 28.815 33.484 29.12 33.28 28.442 33.272 28.294 33.371" data-fill-palette-color="accent"></path><path fill="#030303" d="M37.507 37.868C37.944 38.168 37.893 37.949 37.607 38.119L34.336 40.057C34.202 40.136 34.788 40.404 34.973 40.295L38.477 38.218C38.546 38.177 38.456 38.087 38.422 38.064L30.116 32.354C29.971 32.255 29.289 32.219 29.588 32.424L36.055 36.869z" data-fill-palette-color="accent"></path><path fill="#030303" d="M36.995 43.323C37.244 43.214 36.635 42.924 36.466 42.998 35.544 43.402 34.663 43.893 33.741 44.296 33.491 44.405 34.1 44.695 34.269 44.621 35.191 44.217 36.072 43.727 36.995 43.323" data-fill-palette-color="accent"></path><path fill="#030303" d="M61.896 67.35C59.716 65.008 57.54 62.666 55.361 60.327 54.985 59.924 54.832 59.748 54.247 59.761L53.591 59.777C52.939 56.906 52.285 54.035 51.632 51.165 51.6 51.018 51.233 51.016 51.13 51.025 47.222 51.479 43.332 52.185 39.45 52.834L38.169 51.009 48.014 41.405C48.068 41.353 48.01 41.285 47.911 41.23 42.399 36.793 36.654 32.485 31.491 27.641 32.392 23.289 32.926 18.792 32.871 14.349L32.874 14.345 32.871 14.344 32.872 14.306C32.87 14.121 32.305 13.971 32.206 14.129L27.086 22.472 27.202 14.354 27.205 14.345 27.201 14.344C27.201 14.148 26.606 13.931 26.536 14.129L23.047 24.004 22.548 17.207 22.549 17.204H22.548L22.545 17.165C22.533 16.998 21.927 16.805 21.879 16.988A863 863 0 0 1 18.71 29.241C18.652 29.457 18.596 29.674 18.539 29.891 14.575 29.772 13.122 32.963 13.816 36.607 14.551 40.467 17.837 43.372 21.418 44.862 20.98 45.602 20.96 46.461 21.606 47.285 22.391 48.286 23.776 48.747 25.01 48.588 25.914 48.472 26.49 47.958 26.828 47.276L30.242 54.242C24.782 54.824 19.324 55.407 13.864 55.991 13.828 55.993 13.663 56.006 13.672 56.078 14.879 65.969 15.764 75.905 16.707 85.823 16.729 86.051 17.411 86.104 17.395 85.948 16.579 77.372 15.749 68.795 14.819 60.229 14.709 59.215 14.596 58.204 14.478 57.192 14.385 56.397 13.927 56.317 14.747 56.229L20.157 55.651C23.571 55.288 26.983 54.924 30.397 54.559L33.768 61.438 20.135 65.114C20.098 65.124 20.027 65.157 20.028 65.207L20.066 68.314C20.034 68.337 20.04 68.364 20.067 68.39L20.287 86.436C20.29 86.643 20.988 86.664 20.986 86.473L20.978 85.782C23.836 85.604 26.7 85.115 29.532 84.739 34.036 84.139 38.536 83.516 43.043 82.932 47.072 82.411 51.145 82.19 55.152 81.545 58.617 80.986 62.12 79.949 65.631 79.794 67.928 79.691 70.245 79.874 72.534 79.645A0.6 0.6 0 0 0 72.655 79.618L75.222 82.377C75.349 82.513 76.021 82.53 75.84 82.338A24710 24710 0 0 0 61.896 67.35M20.769 68.485C26.337 66.932 32.391 67.643 38.013 66.341L42.018 70.907C35.198 73.383 27.811 73.266 20.85 75.177zM20.856 75.648C27.904 73.601 35.419 73.767 42.36 71.298L47.292 76.92C46.617 77.085 45.942 77.249 45.269 77.407 37.218 79.3 29.12 80.167 20.922 81.068zM48.499 70.816C51.418 70.336 54.38 70.131 57.323 69.829 59.104 69.645 61.165 69.676 62.91 69.141L67.383 73.947C60.839 73.496 54.36 75.181 47.998 76.749zM61.959 68.119L62.571 68.777C60.744 69.393 58.508 69.338 56.613 69.533 53.919 69.81 51.211 70.011 48.532 70.426L49.047 64.338H49.068C50.527 63.997 52.038 63.838 53.522 63.654 54.781 63.499 56.174 63.227 57.465 63.292zM54.452 60.054L55.077 60.725 57.157 62.959C55.951 62.906 54.678 63.142 53.501 63.277 52.029 63.449 50.538 63.619 49.083 63.918L49.372 60.494C49.372 60.492 49.374 60.489 49.373 60.487L49.399 60.177C50.988 60.139 52.58 60.102 54.168 60.066 54.294 60.063 54.383 60.059 54.452 60.054M50.999 51.362C51.638 54.173 52.276 56.981 52.917 59.791L48.906 59.885C48.767 59.888 48.729 59.918 48.741 59.957 48.724 59.974 48.712 59.991 48.71 60.014L48.689 60.26 44.638 60.04C44.57 60.036 44.53 60.04 44.486 60.042A0.6 0.6 0 0 0 44.409 59.898L43.315 58.339 39.658 53.128C43.428 52.502 47.204 51.821 50.999 51.362M14.671 37.262C13.741 34.092 14.567 30.123 18.467 30.17 18.043 31.794 17.623 33.43 17.059 35.006 16.947 35.319 17.547 36.313 17.676 36.601 18.023 37.374 18.44 38.116 18.859 38.851A31.3 31.3 0 0 0 22.322 43.783 0.3 0.3 0 0 0 22.399 43.836C22.375 43.852 22.347 43.865 22.323 43.881 22.308 43.891 22.305 43.899 22.295 43.908 22.289 43.911 22.279 43.914 22.274 43.918A3.5 3.5 0 0 0 21.627 44.553C18.45 43.16 15.655 40.614 14.671 37.262M26.446 46.593C26.239 47.725 25.418 48.489 24.247 48.279 23.305 48.111 22.373 47.468 21.944 46.603 21.674 46.058 21.722 45.535 21.944 45.067 22.528 45.286 23.116 45.469 23.7 45.61 23.904 45.66 24.501 45.487 24.062 45.381A14.5 14.5 0 0 1 22.119 44.757C22.315 44.467 22.573 44.207 22.858 43.986 23.902 43.285 25.16 43.211 26.046 44.188 26.584 44.78 26.588 45.679 26.469 46.436 26.449 46.453 26.438 46.472 26.45 46.499L26.457 46.513zM27.101 46.525C27.176 46.196 27.214 45.851 27.215 45.502 27.221 44.062 26.289 43.378 25.167 43.226A44 44 0 0 0 22.05 36.794C21.818 36.402 20.809 35.384 21.128 35.076 21.485 34.733 21.85 34.397 22.214 34.063 24.75 31.741 27.77 28.868 31.145 27.841 36.243 32.6 41.892 36.851 47.323 41.219L37.473 50.828A0.06 0.06 0 0 0 37.457 50.889C37.443 50.904 37.438 50.92 37.452 50.94 39.329 53.618 41.208 56.294 43.086 58.971 43.467 59.514 43.732 60.274 44.454 60.313L48.665 60.54 47.343 76.167 34.475 61.495C34.465 61.483 34.45 61.479 34.438 61.47L27.129 46.555C27.123 46.543 27.11 46.535 27.101 46.525M20.876 65.266C22.321 64.877 23.766 64.489 25.21 64.098L33.973 61.736 37.752 66.045C32.226 67.375 26.277 66.705 20.764 68.115L20.748 66.782 20.732 65.507C20.728 65.16 20.55 65.354 20.876 65.266M65.772 79.497C62.645 79.6 59.499 80.49 56.429 81.041 52.203 81.799 47.907 82.027 43.651 82.57 39.172 83.142 34.701 83.763 30.227 84.361 27.165 84.771 24.064 85.313 20.976 85.494L20.926 81.44C28.627 80.592 36.305 79.885 43.873 78.158 51.65 76.383 59.647 73.714 67.687 74.275L72.421 79.363C70.219 79.559 67.982 79.425 65.772 79.497" data-fill-palette-color="accent"></path><path fill="#030303" d="M82.203 41.722C82.359 40.778 82.474 39.829 82.487 38.886 82.505 37.521 82.098 37.187 80.984 36.568 76.278 33.952 71.388 31.605 66.5 29.356 65.256 28.784 63.667 27.77 62.26 27.673 61.082 27.592 60.4 29.607 60.008 30.416 58.483 33.574 57.336 36.982 56.517 40.388 56.116 42.055 55.182 44.839 57.036 45.866 62.379 48.828 68.106 51.515 73.753 53.847 73.76 53.85 73.774 53.851 73.782 53.854 73.797 53.86 73.803 53.866 73.821 53.873 78.012 55.377 80.213 48.933 81.14 46.049A31 31 0 0 0 82.203 41.728zM58.387 36.353C59.661 34.901 61.54 36.484 62.533 37.428 62.633 37.523 63.066 37.668 63.168 37.508 63.938 36.301 65.069 36.958 65.358 38.038 65.4 38.193 65.732 38.211 65.849 38.211 65.936 38.211 66.03 38.22 66.112 38.184 67.55 37.544 68.904 37.809 69.722 39.146 70.111 39.779 70.359 39.729 69.594 39.732 68.157 39.739 66.722 39.741 65.285 39.745L57.336 39.763C57.509 39.184 57.685 38.633 57.829 38.136 58.003 37.541 58.19 36.948 58.383 36.356zM74.204 53.659C69.762 51.819 65.433 49.608 61.113 47.504 60.055 46.989 57.092 46.145 56.756 44.839 56.39 43.409 56.79 41.645 57.255 40.051A0.4 0.4 0 0 0 57.334 40.062C61.729 40.054 66.132 40.137 70.524 40.027 70.587 40.026 70.749 40.001 70.711 39.9 70.288 38.793 69.621 37.985 68.495 37.573 67.504 37.21 66.802 37.728 65.952 37.873 65.429 36.446 63.782 35.879 62.757 37.037 61.649 36.078 60.016 35.045 58.669 35.516 59.309 33.649 60.044 31.809 60.917 30.049 61.257 29.364 61.625 28.637 62.159 28.081 62.416 27.815 63.524 28.427 64.013 28.634 69.065 30.788 73.992 33.309 78.854 35.859 79.647 36.275 81.47 36.835 81.708 37.817 81.933 38.745 81.855 39.796 81.687 40.826 80.843 39.892 79.284 39.569 78.126 39.952 76.647 40.444 75.449 42.263 74.895 43.791 72.676 41.516 69.878 43.645 67.732 45.398 67.544 45.552 67.971 45.596 68.043 45.597 72.181 45.617 76.31 45.936 80.447 45.976A27 27 0 0 1 78.851 49.97C78.054 51.554 76.371 54.425 74.204 53.659M80.531 45.701C77.294 45.673 74.064 45.471 70.828 45.364 70.348 45.348 69.864 45.336 69.383 45.33 68.212 45.314 68.8 45.139 69.376 44.676 71.049 43.335 73.139 42.286 74.708 44.469 74.817 44.622 75.342 44.606 75.395 44.405 75.612 43.558 76.048 42.81 76.524 42.086 76.839 41.604 77.23 41.176 77.642 40.775 78.819 39.633 81.08 40.239 81.503 41.749 81.505 41.754 81.51 41.757 81.512 41.762 81.414 42.231 81.31 42.686 81.218 43.11A33 33 0 0 1 80.531 45.701" data-fill-palette-color="accent"></path></g></svg></g></svg></g></svg></g><defs></defs></svg><rect width="395.52" height="109.2206626535487" fill="none" stroke="none" visibility="hidden"></rect></g></svg></g></svg>